<svg width="21" height="21" viewBox="0 0 21 21" fill="none" xmlns="http://www.w3.org/2000/svg">
<path d="M15.75 15.75H3.9375C3.5894 15.75 3.25556 15.6117 3.00942 15.3656C2.76328 15.1194 2.625 14.7856 2.625 14.4375V6.5625C2.625 6.2144 2.76328 5.88056 3.00942 5.63442C3.25556 5.38828 3.5894 5.25 3.9375 5.25H15.75C16.0981 5.25 16.4319 5.38828 16.6781 5.63442C16.9242 5.88056 17.0625 6.2144 17.0625 6.5625V7.21875H17.7188C18.0668 7.21875 18.4007 7.35703 18.6468 7.60317C18.893 7.84931 19.0312 8.18315 19.0312 8.53125V12.4688C19.0312 12.8168 18.893 13.1507 18.6468 13.3968C18.4007 13.643 18.0668 13.7812 17.7188 13.7812H17.0625V14.4375C17.0625 14.7856 16.9242 15.1194 16.6781 15.3656C16.4319 15.6117 16.0981 15.75 15.75 15.75ZM3.9375 6.5625V14.4375H15.75V12.4688H17.7188V8.53125H15.75V6.5625H3.9375Z" fill="#404D61"/>
<path d="M10.5 7.875V13.125H5.25V7.875H10.5Z" fill="#404D61"/>
</svg>
