<svg width="19" height="19" viewBox="0 0 19 19" fill="none" xmlns="http://www.w3.org/2000/svg">
<path d="M1.0558 8.85612C0.859646 8.71 0.714144 8.50614 0.639692 8.27315C0.565243 8.04015 0.565578 7.7897 0.640656 7.5569C0.715733 7.3241 0.861784 7.12064 1.05833 6.97504C1.25488 6.82944 1.49206 6.74901 1.73663 6.74501L6.48663 6.56557C6.50999 6.56396 6.53238 6.55563 6.55111 6.54158C6.56983 6.52753 6.5841 6.50837 6.59219 6.4864L8.23358 2.05307C8.31605 1.82752 8.46583 1.63276 8.66266 1.49515C8.85948 1.35755 9.09384 1.28375 9.33399 1.28375C9.57415 1.28375 9.80851 1.35755 10.0053 1.49515C10.2022 1.63276 10.3519 1.82752 10.4344 2.05307L12.0705 6.50224C12.0786 6.5242 12.0929 6.54337 12.1116 6.55741C12.1303 6.57146 12.1527 6.57979 12.1761 6.5814L16.9261 6.76085C17.1706 6.76484 17.4078 6.84528 17.6044 6.99088C17.8009 7.13648 17.947 7.33994 18.0221 7.57273C18.0971 7.80553 18.0975 8.05598 18.023 8.28898C17.9486 8.52198 17.8031 8.72583 17.6069 8.87196L13.8808 11.8011C13.8622 11.8158 13.8482 11.8356 13.8407 11.8581C13.8332 11.8806 13.8325 11.9049 13.8386 11.9278L15.1211 16.472C15.1875 16.7034 15.1811 16.9496 15.1026 17.1772C15.0242 17.4048 14.8775 17.6028 14.6826 17.744C14.4876 17.8853 14.2539 17.9632 14.0132 17.9669C13.7725 17.9707 13.5364 17.9002 13.3372 17.765L9.39997 15.1261C9.38057 15.1127 9.35756 15.1056 9.33399 15.1056C9.31043 15.1056 9.28742 15.1127 9.26802 15.1261L5.3308 17.765C5.13425 17.9048 4.89906 17.9799 4.65788 17.9799C4.41671 17.9799 4.18151 17.9048 3.98497 17.765C3.78999 17.625 3.64317 17.4281 3.56473 17.2013C3.48628 16.9744 3.48006 16.7289 3.54691 16.4983L4.83997 11.9383C4.84682 11.9155 4.84644 11.891 4.83888 11.8683C4.83133 11.8457 4.81696 11.8259 4.79774 11.8117L1.0558 8.85612Z" fill="#FFD02C"/>
</svg>
