<svg width="22" height="22" viewBox="0 0 22 22" fill="none" xmlns="http://www.w3.org/2000/svg">
<path d="M19.4856 10.0485C19.9201 10.6168 19.9201 11.3841 19.4856 11.9515C18.117 13.7381 14.8335 17.4167 11 17.4167C7.16647 17.4167 3.88297 13.7381 2.51439 11.9515C2.30299 11.6794 2.18823 11.3446 2.18823 11C2.18823 10.6554 2.30299 10.3206 2.51439 10.0485C3.88297 8.26192 7.16647 4.58333 11 4.58333C14.8335 4.58333 18.117 8.26192 19.4856 10.0485V10.0485Z" stroke="black" stroke-opacity="0.4" stroke-width="2" stroke-linecap="round" stroke-linejoin="round"/>
<path d="M11 13.75C12.5188 13.75 13.75 12.5188 13.75 11C13.75 9.48122 12.5188 8.25 11 8.25C9.48122 8.25 8.25 9.48122 8.25 11C8.25 12.5188 9.48122 13.75 11 13.75Z" stroke="black" stroke-opacity="0.4" stroke-width="2" stroke-linecap="round" stroke-linejoin="round"/>
</svg>
