<svg width="63" height="53" viewBox="0 0 63 53" fill="none" xmlns="http://www.w3.org/2000/svg">
<circle cx="38.5" cy="24.5" r="21.5" fill="#EBEBEB" stroke="#FF8484" stroke-width="6"/>
<circle cx="15.5" cy="37.5" r="14" fill="#FF8484" stroke="white" stroke-width="3"/>
<path d="M14.5 30.9999C14.617 30.9999 14.7304 31.0409 14.8203 31.1158C14.9102 31.1908 14.9709 31.2948 14.992 31.4099L15 31.4999V34.4999C15.0001 35.0763 14.8011 35.6349 14.4367 36.0814C14.0722 36.5279 13.5647 36.8347 13 36.9499V44.4999C13.0002 44.6249 12.9537 44.7454 12.8695 44.8377C12.7853 44.9301 12.6696 44.9875 12.5452 44.9988C12.4207 45.0101 12.2966 44.9744 12.1972 44.8987C12.0977 44.823 12.0303 44.7129 12.008 44.5899L12 44.4999V36.9499C11.4642 36.8404 10.979 36.5581 10.6189 36.1465C10.2587 35.7349 10.0435 35.2166 10.006 34.6709L10 34.4999V31.4999C9.99977 31.375 10.0463 31.2545 10.1305 31.1622C10.2147 31.0698 10.3304 31.0124 10.4548 31.0011C10.5793 30.9898 10.7034 31.0255 10.8028 31.1012C10.9023 31.1768 10.9697 31.287 10.992 31.4099L11 31.4999V34.4999C10.9998 34.8103 11.0959 35.113 11.275 35.3664C11.4541 35.6199 11.7074 35.8115 12 35.9149V31.4999C11.9998 31.375 12.0463 31.2545 12.1305 31.1622C12.2147 31.0698 12.3304 31.0124 12.4548 31.0011C12.5793 30.9898 12.7034 31.0255 12.8028 31.1012C12.9023 31.1768 12.9697 31.287 12.992 31.4099L13 31.4999V35.9139C13.538 35.7239 13.935 35.2359 13.993 34.6489L14 34.4999V31.4999C14 31.3673 14.0527 31.2402 14.1464 31.1464C14.2402 31.0526 14.3674 30.9999 14.5 30.9999ZM19.5 30.9999C19.617 30.9999 19.7304 31.0409 19.8203 31.1158C19.9102 31.1908 19.9709 31.2948 19.992 31.4099L20 31.4999V44.4999C20.0002 44.6249 19.9537 44.7454 19.8695 44.8377C19.7853 44.9301 19.6696 44.9875 19.5452 44.9988C19.4207 45.0101 19.2966 44.9744 19.1972 44.8987C19.0977 44.823 19.0303 44.7129 19.008 44.5899L19 44.4999V38.9999H17.5C17.383 39 17.2696 38.959 17.1797 38.8841C17.0898 38.8091 17.0291 38.7051 17.008 38.5899L17 38.4999V33.4999C17 32.8369 17.2634 32.201 17.7322 31.7322C18.2011 31.2633 18.837 30.9999 19.5 30.9999ZM19 37.9999V32.0849C18.462 32.2749 18.065 32.7629 18.007 33.3509L18 33.4999V37.9999H19V32.0849V37.9999Z" fill="white"/>
</svg>
