<svg width="12" height="10" viewBox="0 0 12 10" fill="none" xmlns="http://www.w3.org/2000/svg">
<path d="M1.74189 3.44059C1.37157 3.03086 0.739211 2.9989 0.329477 3.36922C-0.0802569 3.73954 -0.112208 4.3719 0.258111 4.78164L1.74189 3.44059ZM11.8165 1.57735C12.1354 1.12641 12.0283 0.502362 11.5773 0.183502C11.1264 -0.135359 10.5024 -0.0282874 10.1835 0.422652L11.8165 1.57735ZM4.99535 8.5317L4.25346 9.20222L4.99535 8.5317ZM5.77621 8.48331L4.95412 7.91396L5.77621 8.48331ZM0.258111 4.78164L4.25346 9.20222L5.73724 7.86117L1.74189 3.44059L0.258111 4.78164ZM6.59831 9.05266C7.51476 7.72938 10 4.14621 11.8165 1.57735L10.1835 0.422652C8.36072 3.00048 5.8703 6.59108 4.95412 7.91396L6.59831 9.05266ZM4.25346 9.20222C4.89651 9.91371 6.04336 9.85396 6.59831 9.05266L4.95412 7.91396C5.14194 7.64276 5.52655 7.62806 5.73724 7.86117L4.25346 9.20222Z" fill="#34C759"/>
</svg>
