<svg width="56" height="62" viewBox="0 0 56 62" fill="none" xmlns="http://www.w3.org/2000/svg">
<g filter="url(#filter0_d_344_3697)">
<circle cx="28" cy="28" r="21.5" fill="#1784E8" stroke="#1784E8" stroke-width="5"/>
<path d="M29 58L22.0718 49.75L35.9282 49.75L29 58Z" fill="#1784E8"/>
<path d="M29.3229 19.125H24.3333C23.1875 19.125 22.25 20.0625 22.25 21.2083V35.7917C22.25 36.9375 23.1875 37.875 24.3333 37.875C25.4792 37.875 26.4167 36.9375 26.4167 35.7917V31.625H29.5417C33.2604 31.625 36.2292 28.3646 35.7396 24.5521C35.3333 21.4062 32.5 19.125 29.3229 19.125ZM29.75 27.4583H26.4167V23.2917H29.75C30.8958 23.2917 31.8333 24.2292 31.8333 25.375C31.8333 26.5208 30.8958 27.4583 29.75 27.4583Z" fill="white"/>
</g>
<defs>
<filter id="filter0_d_344_3697" x="0" y="0" width="56" height="62" filterUnits="userSpaceOnUse" color-interpolation-filters="sRGB">
<feFlood flood-opacity="0" result="BackgroundImageFix"/>
<feColorMatrix in="SourceAlpha" type="matrix" values="0 0 0 0 0 0 0 0 0 0 0 0 0 0 0 0 0 0 127 0" result="hardAlpha"/>
<feOffset/>
<feGaussianBlur stdDeviation="2"/>
<feComposite in2="hardAlpha" operator="out"/>
<feColorMatrix type="matrix" values="0 0 0 0 0 0 0 0 0 0 0 0 0 0 0 0 0 0 0.25 0"/>
<feBlend mode="normal" in2="BackgroundImageFix" result="effect1_dropShadow_344_3697"/>
<feBlend mode="normal" in="SourceGraphic" in2="effect1_dropShadow_344_3697" result="shape"/>
</filter>
</defs>
</svg>
