<svg width="90" height="99" viewBox="0 0 50 55" fill="none" xmlns="http://www.w3.org/2000/svg">
<circle cx="25" cy="25" r="19" fill="white"/>
<path d="M46.4077 24.908C46.4077 22.0845 45.8516 19.2888 44.7711 16.6803C43.6907 14.0718 42.107 11.7016 40.1105 9.70517C38.1141 7.70871 35.7439 6.12503 33.1354 5.04455C30.5269 3.96407 27.7311 3.40796 24.9077 3.40796C22.0843 3.40796 19.2885 3.96407 16.68 5.04455C14.0715 6.12502 11.7014 7.7087 9.70492 9.70516C7.70846 11.7016 6.12478 14.0718 5.04431 16.6803C3.96383 19.2888 3.40772 22.0845 3.40771 24.908C3.40771 27.7314 3.96383 30.5272 5.0443 33.1357C6.12478 35.7442 7.70846 38.1143 9.70492 40.1108C11.7014 42.1072 14.0715 43.6909 16.68 44.7714C19.2885 45.8518 22.0843 46.408 24.9077 46.408C27.7311 46.408 30.5269 45.8518 33.1354 44.7714C35.7439 43.6909 38.1141 42.1072 40.1105 40.1108C42.107 38.1143 43.6906 35.7442 44.7711 33.1357C45.8516 30.5272 46.4077 27.7314 46.4077 24.908L46.4077 24.908Z" stroke="#D7D7D7" stroke-width="6" stroke-miterlimit="1" stroke-linejoin="round"/>
<path d="M9.63999 40.0451C12.1293 42.556 15.1995 44.4141 18.5785 45.455C21.9575 46.4959 25.541 46.6875 29.0117 46.0126C32.4824 45.3377 35.7331 43.8174 38.4759 41.5861C41.2186 39.3549 43.3688 36.4816 44.7359 33.2209C46.103 29.9602 46.6448 26.4127 46.3134 22.8926C45.982 19.3724 44.7875 15.9884 42.8359 13.0401C40.8842 10.0919 38.2356 7.67046 35.1246 5.99034C32.0136 4.31022 28.5362 3.42328 25.0006 3.40806" stroke="#1784E8" stroke-width="6" stroke-miterlimit="1" stroke-linecap="round" stroke-linejoin="round"/>
<path d="M26 55L19.0718 46.75L32.9282 46.75L26 55Z" fill="#1784E8"/>
<path d="M28.8318 30.6667H22.2502V29.75C22.2502 27.7242 20.6093 26.0833 18.5835 26.0833H17.9052L19.6468 18.3467C19.7397 17.9416 19.9669 17.5798 20.2914 17.3202C20.6159 17.0606 21.0187 16.9184 21.4343 16.9167H24.0835C24.5877 16.9167 25.0002 17.3292 25.0002 17.8333C25.0002 18.3375 24.5877 18.75 24.0835 18.75H21.4343L20.151 24.4792H20.1602C21.1424 24.7752 22.0224 25.3397 22.701 26.109C23.3796 26.8783 23.8298 27.8219 24.001 28.8333H28.8318C29.0521 28.2087 29.4907 27.6847 30.0668 27.3579C30.6429 27.0312 31.3177 26.9236 31.9668 27.055C33.0485 27.2658 33.9193 28.155 34.121 29.2367C34.1962 29.6344 34.1828 30.0437 34.0817 30.4357C33.9806 30.8276 33.7942 31.1923 33.536 31.504C33.2778 31.8156 32.9539 32.0665 32.5876 32.2386C32.2213 32.4108 31.8216 32.5 31.4168 32.5C30.2252 32.5 29.2168 31.73 28.8318 30.6667ZM31.4168 30.6667C31.921 30.6667 32.3335 30.2542 32.3335 29.75C32.3335 29.2458 31.921 28.8333 31.4168 28.8333C30.9127 28.8333 30.5002 29.2458 30.5002 29.75C30.5002 30.2542 30.9127 30.6667 31.4168 30.6667Z" fill="black"/>
<path d="M18.5835 27C20.1052 27 21.3335 28.2283 21.3335 29.75C21.3335 31.2717 20.1052 32.5 18.5835 32.5C17.0618 32.5 15.8335 31.2717 15.8335 29.75C15.8335 28.2283 17.0618 27 18.5835 27ZM18.5835 30.6667C19.0877 30.6667 19.5002 30.2542 19.5002 29.75C19.5002 29.2458 19.0877 28.8333 18.5835 28.8333C18.0793 28.8333 17.6668 29.2458 17.6668 29.75C17.6668 30.2542 18.0793 30.6667 18.5835 30.6667Z" fill="black"/>
</svg>
