<svg width="90" height="99" viewBox="0 0 50 56" fill="none" xmlns="http://www.w3.org/2000/svg">
<circle cx="25.3853" cy="25.3857" r="19" fill="white"/>
<path d="M46.793 25.2936C46.793 22.4702 46.2369 19.6744 45.1564 17.0659C44.0759 14.4574 42.4922 12.0873 40.4958 10.0908C38.4993 8.09436 36.1292 6.51068 33.5207 5.4302C30.9122 4.34972 28.1164 3.79361 25.293 3.79361C22.4696 3.79361 19.6738 4.34972 17.0653 5.4302C14.4568 6.51067 12.0866 8.09435 10.0902 10.0908C8.09371 12.0873 6.51004 14.4574 5.42956 17.0659C4.34908 19.6744 3.79297 22.4702 3.79297 25.2936C3.79297 28.117 4.34908 30.9128 5.42956 33.5213C6.51003 36.1298 8.09371 38.4999 10.0902 40.4964C12.0866 42.4929 14.4568 44.0765 17.0653 45.157C19.6738 46.2375 22.4695 46.7936 25.293 46.7936C28.1164 46.7936 30.9122 46.2375 33.5207 45.157C36.1292 44.0765 38.4993 42.4929 40.4958 40.4964C42.4922 38.4999 44.0759 36.1298 45.1564 33.5213C46.2369 30.9128 46.793 28.117 46.793 25.2936L46.793 25.2936Z" stroke="#D7D7D7" stroke-width="6" stroke-miterlimit="1" stroke-linejoin="round"/>
<path d="M19.86 46.0954C22.7293 46.8449 25.7226 46.9926 28.6518 46.5294C31.5809 46.0661 34.3826 45.0019 36.8806 43.4036C39.3786 41.8053 41.519 39.7076 43.1672 37.2422C44.8153 34.7768 45.9356 31.997 46.4576 29.0778C46.9796 26.1585 46.8921 23.1628 46.2004 20.279C45.5088 17.3952 44.228 14.6857 42.4387 12.3208C40.6493 9.95585 38.3901 7.98667 35.803 6.53704C33.2159 5.0874 30.3568 4.18866 27.4056 3.89731" stroke="#1784E8" stroke-width="6" stroke-miterlimit="1" stroke-linecap="round" stroke-linejoin="round"/>
<path d="M26.3853 55.3856L19.457 47.1357L33.3135 47.1357L26.3853 55.3856Z" fill="#1784E8"/>
<g clip-path="url(#clip0_482_6625)">
<path d="M29.2395 30.9599H29.5903L29.7097 31.2897C30.0273 32.1669 30.8557 32.7932 31.8245 32.7932H31.8246C32.1558 32.7933 32.4829 32.7202 32.7827 32.5794C33.0824 32.4385 33.3474 32.2332 33.5587 31.9782C33.77 31.7232 33.9225 31.4247 34.0053 31.104C34.088 30.7833 34.099 30.4483 34.0374 30.1228L34.0372 30.1215C33.8726 29.2388 33.1565 28.5101 32.2789 28.339L32.2789 28.339L32.2753 28.3383C31.7443 28.2308 31.1924 28.3188 30.7212 28.5861C30.25 28.8534 29.8912 29.282 29.7111 29.7929L29.5934 30.1266H29.2395H24.4087H23.9862L23.9157 29.71C23.7601 28.7904 23.3507 27.9325 22.7337 27.233C22.1326 26.5515 21.3577 26.0468 20.4924 25.7724H19.9343L20.0708 25.1631L21.3541 19.4339L21.4416 19.0432H21.842H24.4912C24.7192 19.0432 24.9079 18.8546 24.9079 18.6266C24.9079 18.3985 24.7192 18.2099 24.4912 18.2099H21.8431C21.5407 18.2113 21.2476 18.3149 21.0115 18.5039C20.7753 18.6928 20.6099 18.956 20.5421 19.2508C20.542 19.2511 20.542 19.2514 20.5419 19.2516L18.9379 26.3766H18.9912C21.2932 26.3766 23.1579 28.2413 23.1579 30.5432V30.9599H29.2395ZM33.2412 30.5432C33.2412 31.3235 32.6048 31.9599 31.8245 31.9599C31.0442 31.9599 30.4079 31.3235 30.4079 30.5432C30.4079 29.7629 31.0442 29.1266 31.8245 29.1266C32.6048 29.1266 33.2412 29.7629 33.2412 30.5432Z" fill="black" stroke="black"/>
<path d="M18.9912 27.7933C20.5129 27.7933 21.7412 29.0216 21.7412 30.5433C21.7412 32.0649 20.5129 33.2933 18.9912 33.2933C17.4695 33.2933 16.2412 32.0649 16.2412 30.5433C16.2412 29.0216 17.4695 27.7933 18.9912 27.7933ZM18.9912 31.4599C19.4954 31.4599 19.9079 31.0474 19.9079 30.5433C19.9079 30.0391 19.4954 29.6266 18.9912 29.6266C18.487 29.6266 18.0745 30.0391 18.0745 30.5433C18.0745 31.0474 18.487 31.4599 18.9912 31.4599Z" fill="black"/>
<line x1="27.875" y1="19.5103" x2="32.125" y2="19.5103" stroke="black" stroke-width="1.75" stroke-linecap="round"/>
<line x1="29.875" y1="22.5103" x2="34.125" y2="22.5103" stroke="black" stroke-width="1.75" stroke-linecap="round"/>
<path d="M32 25.3853H36.25" stroke="black" stroke-width="1.75" stroke-linecap="round"/>
</g>
<defs>
<clipPath id="clip0_482_6625">
<rect width="22" height="22" fill="white" transform="translate(15.4077 15.7933)"/>
</clipPath>
</defs>
</svg>
