<svg width="90" height="99" viewBox="0 0 50 56" fill="none" xmlns="http://www.w3.org/2000/svg">
<circle cx="25" cy="25.3854" r="19" fill="white"/>
<path d="M46.4077 25.2933C46.4077 22.4699 45.8516 19.6741 44.7711 17.0656C43.6907 14.4571 42.107 12.087 40.1105 10.0905C38.1141 8.09408 35.7439 6.5104 33.1354 5.42993C30.5269 4.34945 27.7311 3.79334 24.9077 3.79333C22.0843 3.79333 19.2885 4.34945 16.68 5.42992C14.0715 6.5104 11.7014 8.09408 9.70492 10.0905C7.70846 12.087 6.12478 14.4571 5.04431 17.0656C3.96383 19.6741 3.40772 22.4699 3.40771 25.2933C3.40771 28.1168 3.96383 30.9125 5.0443 33.521C6.12478 36.1295 7.70846 38.4997 9.70492 40.4961C11.7014 42.4926 14.0715 44.0763 16.68 45.1567C19.2885 46.2372 22.0843 46.7933 24.9077 46.7933C27.7311 46.7933 30.5269 46.2372 33.1354 45.1567C35.7439 44.0763 38.1141 42.4926 40.1105 40.4961C42.107 38.4997 43.6906 36.1295 44.7711 33.521C45.8516 30.9125 46.4077 28.1168 46.4077 25.2933L46.4077 25.2933Z" stroke="#D7D7D7" stroke-width="6" stroke-miterlimit="1" stroke-linejoin="round"/>
<path d="M9.63999 40.4305C12.1293 42.9413 15.1995 44.7995 18.5785 45.8404C21.9575 46.8813 25.541 47.0728 29.0117 46.398C32.4824 45.7231 35.7331 44.2027 38.4759 41.9715C41.2186 39.7403 43.3688 36.867 44.7359 33.6063C46.103 30.3456 46.6448 26.7981 46.3134 23.2779C45.982 19.7578 44.7875 16.3738 42.8359 13.4255C40.8842 10.4773 38.2356 8.05583 35.1246 6.37572C32.0136 4.6956 28.5362 3.80865 25.0006 3.79344" stroke="#1784E8" stroke-width="6" stroke-miterlimit="1" stroke-linecap="round" stroke-linejoin="round"/>
<path d="M26 55.3854L19.0718 47.1354L32.9282 47.1354L26 55.3854Z" fill="#1784E8"/>
<g clip-path="url(#clip0_482_6601)">
<path d="M28.2395 29.9599H28.5903L28.7097 30.2897C29.0273 31.1669 29.8557 31.7932 30.8245 31.7932H30.8246C31.1558 31.7933 31.4829 31.7202 31.7827 31.5794C32.0824 31.4385 32.3474 31.2332 32.5587 30.9782C32.77 30.7232 32.9225 30.4247 33.0053 30.104C33.088 29.7833 33.099 29.4483 33.0374 29.1228L33.0372 29.1215C32.8726 28.2388 32.1565 27.5101 31.2789 27.339L31.2789 27.339L31.2753 27.3383C30.7443 27.2308 30.1924 27.3188 29.7212 27.5861C29.25 27.8534 28.8912 28.282 28.7111 28.7929L28.5934 29.1266H28.2395H23.4087H22.9862L22.9157 28.71C22.7601 27.7904 22.3507 26.9325 21.7337 26.233C21.1326 25.5515 20.3577 25.0468 19.4924 24.7724H18.9343L19.0708 24.1631L20.3541 18.4339L20.4416 18.0432H20.842H23.4912C23.7192 18.0432 23.9079 17.8546 23.9079 17.6266C23.9079 17.3985 23.7192 17.2099 23.4912 17.2099H20.8431C20.5407 17.2113 20.2476 17.3149 20.0115 17.5039C19.7753 17.6928 19.6099 17.956 19.5421 18.2508C19.542 18.2511 19.542 18.2514 19.5419 18.2516L17.9379 25.3766H17.9912C20.2932 25.3766 22.1579 27.2413 22.1579 29.5432V29.9599H28.2395ZM32.2412 29.5432C32.2412 30.3235 31.6048 30.9599 30.8245 30.9599C30.0442 30.9599 29.4079 30.3235 29.4079 29.5432C29.4079 28.7629 30.0442 28.1266 30.8245 28.1266C31.6048 28.1266 32.2412 28.7629 32.2412 29.5432Z" fill="black" stroke="black"/>
<path d="M17.9912 26.7933C19.5129 26.7933 20.7412 28.0216 20.7412 29.5433C20.7412 31.0649 19.5129 32.2933 17.9912 32.2933C16.4695 32.2933 15.2412 31.0649 15.2412 29.5433C15.2412 28.0216 16.4695 26.7933 17.9912 26.7933ZM17.9912 30.4599C18.4954 30.4599 18.9079 30.0474 18.9079 29.5433C18.9079 29.0391 18.4954 28.6266 17.9912 28.6266C17.487 28.6266 17.0745 29.0391 17.0745 29.5433C17.0745 30.0474 17.487 30.4599 17.9912 30.4599Z" fill="black"/>
<line x1="26.875" y1="18.5103" x2="31.125" y2="18.5103" stroke="black" stroke-width="1.75" stroke-linecap="round"/>
<line x1="28.875" y1="21.5103" x2="33.125" y2="21.5103" stroke="black" stroke-width="1.75" stroke-linecap="round"/>
<path d="M31 24.3853H35.25" stroke="black" stroke-width="1.75" stroke-linecap="round"/>
</g>
<defs>
<clipPath id="clip0_482_6601">
<rect width="22" height="22" fill="white" transform="translate(14.4077 14.7933)"/>
</clipPath>
</defs>
</svg>
