<svg width="27" height="27" viewBox="0 0 27 27" fill="none" xmlns="http://www.w3.org/2000/svg">
<path d="M18.2025 18H10.125V16.875C10.125 14.3888 8.11124 12.375 5.62499 12.375H4.79249L6.92999 2.88C7.04398 2.38285 7.32278 1.93887 7.72106 1.62025C8.11934 1.30162 8.61369 1.12708 9.12374 1.125H12.375C12.9937 1.125 13.5 1.63125 13.5 2.25C13.5 2.86875 12.9937 3.375 12.375 3.375H9.12374L7.54874 10.4062H7.55999C8.76542 10.7696 9.84541 11.4623 10.6783 12.4065C11.5111 13.3507 12.0637 14.5087 12.2737 15.75H18.2025C18.4728 14.9834 19.0111 14.3404 19.7181 13.9393C20.4252 13.5382 21.2533 13.4062 22.05 13.5675C23.3775 13.8263 24.4462 14.9175 24.6937 16.245C24.7861 16.7331 24.7696 17.2355 24.6455 17.7165C24.5214 18.1975 24.2927 18.6451 23.9758 19.0276C23.6589 19.4101 23.2614 19.718 22.8119 19.9292C22.3623 20.1405 21.8717 20.2501 21.375 20.25C19.9125 20.25 18.675 19.305 18.2025 18ZM21.375 18C21.9937 18 22.5 17.4937 22.5 16.875C22.5 16.2563 21.9937 15.75 21.375 15.75C20.7562 15.75 20.25 16.2563 20.25 16.875C20.25 17.4937 20.7562 18 21.375 18Z" fill="#757D8A"/>
<path d="M5.625 13.5C7.4925 13.5 9 15.0075 9 16.875C9 18.7425 7.4925 20.25 5.625 20.25C3.7575 20.25 2.25 18.7425 2.25 16.875C2.25 15.0075 3.7575 13.5 5.625 13.5ZM5.625 18C6.24375 18 6.75 17.4938 6.75 16.875C6.75 16.2562 6.24375 15.75 5.625 15.75C5.00625 15.75 4.5 16.2562 4.5 16.875C4.5 17.4938 5.00625 18 5.625 18Z" fill="#757D8A"/>
</svg>
