<svg width="23" height="23" viewBox="0 0 23 23" fill="none" xmlns="http://www.w3.org/2000/svg">
<path d="M11.2767 12.9375C11.9737 12.9375 12.655 12.7267 13.2345 12.3318C13.814 11.937 14.2657 11.3757 14.5324 10.719C14.7991 10.0623 14.8689 9.33977 14.7329 8.64265C14.597 7.94553 14.2613 7.30518 13.7685 6.80259C13.2757 6.29999 12.6478 5.95772 11.9642 5.81905C11.2806 5.68039 10.572 5.75156 9.92812 6.02356C9.2842 6.29556 8.73383 6.75618 8.34661 7.34717C7.9594 7.93816 7.75272 8.63298 7.75272 9.34375C7.75384 10.2965 8.12547 11.2099 8.7861 11.8837C9.44673 12.5574 10.3424 12.9364 11.2767 12.9375ZM11.2767 7.1875C11.6949 7.1875 12.1037 7.31396 12.4514 7.5509C12.7991 7.78783 13.0701 8.12459 13.2301 8.51859C13.3902 8.91259 13.432 9.34614 13.3504 9.76442C13.2689 10.1827 13.0675 10.5669 12.7718 10.8685C12.4761 11.17 12.0993 11.3754 11.6892 11.4586C11.279 11.5418 10.8539 11.4991 10.4675 11.3359C10.0812 11.1727 9.75097 10.8963 9.51864 10.5417C9.28631 10.1871 9.16231 9.77022 9.16231 9.34375C9.16287 8.77205 9.38581 8.22394 9.78221 7.81968C10.1786 7.41543 10.7161 7.18807 11.2767 7.1875Z" fill="#404D61"/>
<path d="M11.2767 21.5625L17.2223 14.4117C17.3049 14.3043 17.3867 14.1962 17.4676 14.0875C18.4832 12.7232 19.0319 11.0567 19.0294 9.34375C19.0294 7.24688 18.2126 5.2359 16.7587 3.75319C15.3048 2.27048 13.3328 1.4375 11.2767 1.4375C9.22053 1.4375 7.24859 2.27048 5.79467 3.75319C4.34075 5.2359 3.52395 7.24688 3.52395 9.34375C3.52149 11.0559 4.0699 12.7216 5.08507 14.0853L5.08577 14.0875C5.08577 14.0875 5.29721 14.3707 5.32893 14.4088L11.2767 21.5625ZM16.3427 13.2214C16.3413 13.2214 16.1778 13.4428 16.1405 13.4902L11.2767 19.3401L6.40656 13.4823C6.37554 13.4428 6.21062 13.22 6.20992 13.2192C5.38027 12.1046 4.93191 10.7432 4.93354 9.34375C4.93354 7.62813 5.60183 5.98278 6.7914 4.76965C7.98097 3.55653 9.59437 2.875 11.2767 2.875C12.959 2.875 14.5724 3.55653 15.762 4.76965C16.9515 5.98278 17.6198 7.62813 17.6198 9.34375C17.6213 10.744 17.1724 12.1062 16.342 13.2214H16.3427Z" fill="#404D61"/>
</svg>
