<svg width="16" height="16" viewBox="0 0 16 16" fill="none" xmlns="http://www.w3.org/2000/svg">
<path fill-rule="evenodd" clip-rule="evenodd" d="M1.77775 7.11101C1.77775 4.16972 4.16972 1.77775 7.11101 1.77775C10.0523 1.77775 12.4443 4.16972 12.4443 7.11101C12.4443 10.0523 10.0523 12.4443 7.11101 12.4443C4.16972 12.4443 1.77775 10.0523 1.77775 7.11101ZM15.7393 14.4825L12.7216 11.4638C13.6576 10.2603 14.222 8.75188 14.222 7.11101C14.222 3.19018 11.0318 0 7.11101 0C3.19018 0 0 3.19018 0 7.11101C0 11.0318 3.19018 14.222 7.11101 14.222C8.75188 14.222 10.2603 13.6576 11.4638 12.7216L14.4825 15.7393C14.6558 15.9127 14.8833 15.9998 15.1109 15.9998C15.3385 15.9998 15.566 15.9127 15.7393 15.7393C16.0869 15.3918 16.0869 14.83 15.7393 14.4825Z" fill="#757D8A"/>
</svg>
