<svg width="33" height="33" viewBox="0 0 33 33" fill="none" xmlns="http://www.w3.org/2000/svg">
<path d="M22.6875 4.94995C24.1098 4.94995 25.4737 5.51493 26.4794 6.52059C27.4851 7.52625 28.05 8.89023 28.05 10.3125V12.5334C28.05 12.8616 27.9197 13.1763 27.6876 13.4084C27.4555 13.6405 27.1408 13.7709 26.8125 13.7709C26.4843 13.7709 26.1696 13.6405 25.9375 13.4084C25.7054 13.1763 25.575 12.8616 25.575 12.5334V10.3125C25.575 8.71855 24.2814 7.42495 22.6875 7.42495H20.4666C20.1384 7.42495 19.8237 7.29457 19.5916 7.0625C19.3595 6.83042 19.2291 6.51566 19.2291 6.18745C19.2291 5.85925 19.3595 5.54448 19.5916 5.31241C19.8237 5.08033 20.1384 4.94995 20.4666 4.94995H22.6875ZM12.5334 4.94995C12.8617 4.94995 13.1764 5.08033 13.4085 5.31241C13.6406 5.54448 13.7709 5.85925 13.7709 6.18745C13.7709 6.51566 13.6406 6.83042 13.4085 7.0625C13.1764 7.29457 12.8617 7.42495 12.5334 7.42495H10.3125C8.71865 7.42495 7.42505 8.71855 7.42505 10.3125V12.5334C7.42505 12.8616 7.29467 13.1763 7.06259 13.4084C6.83052 13.6405 6.51575 13.7709 6.18755 13.7709C5.85934 13.7709 5.54458 13.6405 5.3125 13.4084C5.08043 13.1763 4.95005 12.8616 4.95005 12.5334V10.3125C4.95005 8.89023 5.51502 7.52625 6.52069 6.52059C7.52635 5.51493 8.89033 4.94995 10.3125 4.94995H12.5334ZM25.575 20.4666C25.575 20.1383 25.7054 19.8236 25.9375 19.5915C26.1696 19.3594 26.4843 19.2291 26.8125 19.2291C27.1408 19.2291 27.4555 19.3594 27.6876 19.5915C27.9197 19.8236 28.05 20.1383 28.05 20.4666V22.6875C28.05 24.1097 27.4851 25.4736 26.4794 26.4793C25.4737 27.485 24.1098 28.05 22.6875 28.05H20.4666C20.1384 28.05 19.8237 27.9196 19.5916 27.6875C19.3595 27.4554 19.2291 27.1407 19.2291 26.8125C19.2291 26.4842 19.3595 26.1695 19.5916 25.9374C19.8237 25.7053 20.1384 25.575 20.4666 25.575H22.6875C23.4534 25.575 24.1878 25.2707 24.7293 24.7292C25.2708 24.1877 25.575 23.4533 25.575 22.6875V20.4666ZM4.95005 20.4666C4.95005 20.1383 5.08043 19.8236 5.3125 19.5915C5.54458 19.3594 5.85934 19.2291 6.18755 19.2291C6.51575 19.2291 6.83052 19.3594 7.06259 19.5915C7.29467 19.8236 7.42505 20.1383 7.42505 20.4666V22.6875C7.42505 23.4533 7.72927 24.1877 8.27078 24.7292C8.81229 25.2707 9.54674 25.575 10.3125 25.575H12.5334C12.8617 25.575 13.1764 25.7053 13.4085 25.9374C13.6406 26.1695 13.7709 26.4842 13.7709 26.8125C13.7709 27.1407 13.6406 27.4554 13.4085 27.6875C13.1764 27.9196 12.8617 28.05 12.5334 28.05H10.3125C8.89033 28.05 7.52635 27.485 6.52069 26.4793C5.51502 25.4736 4.95005 24.1097 4.95005 22.6875V20.4666ZM21.8625 15.2625C22.1908 15.2625 22.5055 15.3928 22.7376 15.6249C22.9697 15.857 23.1 16.1717 23.1 16.5C23.1 16.8282 22.9697 17.1429 22.7376 17.375C22.5055 17.6071 22.1908 17.7375 21.8625 17.7375H11.1375C10.8093 17.7375 10.4946 17.6071 10.2625 17.375C10.0304 17.1429 9.90005 16.8282 9.90005 16.5C9.90005 16.1717 10.0304 15.857 10.2625 15.6249C10.4946 15.3928 10.8093 15.2625 11.1375 15.2625H21.8625Z" fill="white"/>
</svg>
