<svg width="34" height="34" viewBox="0 0 34 34" fill="none" xmlns="http://www.w3.org/2000/svg">
<g filter="url(#filter0_d_442_5108)">
<circle cx="17" cy="17" r="11.5" fill="#FF9D32" stroke="white" stroke-width="3"/>
<path d="M16.6 11.4C16.6936 11.4 16.7843 11.4328 16.8562 11.4927C16.9281 11.5526 16.9767 11.6359 16.9936 11.728L17 11.8V14.2C17.0001 14.6611 16.8409 15.108 16.5493 15.4652C16.2578 15.8223 15.8517 16.0678 15.4 16.16V22.2C15.4002 22.3 15.3629 22.3964 15.2956 22.4702C15.2283 22.5441 15.1357 22.5901 15.0361 22.5991C14.9366 22.6081 14.8373 22.5796 14.7577 22.519C14.6782 22.4585 14.6242 22.3704 14.6064 22.272L14.6 22.2V16.16C14.1713 16.0723 13.7832 15.8466 13.4951 15.5173C13.207 15.188 13.0348 14.7733 13.0048 14.3368L13 14.2V11.8C12.9998 11.7 13.0371 11.6036 13.1044 11.5298C13.1718 11.4559 13.2643 11.4099 13.3639 11.4009C13.4634 11.3919 13.5627 11.4204 13.6423 11.481C13.7218 11.5415 13.7758 11.6296 13.7936 11.728L13.8 11.8V14.2C13.7999 14.4483 13.8767 14.6904 14.02 14.8932C14.1633 15.0959 14.3659 15.2492 14.6 15.332V11.8C14.5998 11.7 14.6371 11.6036 14.7044 11.5298C14.7718 11.4559 14.8643 11.4099 14.9639 11.4009C15.0634 11.3919 15.1627 11.4204 15.2423 11.481C15.3218 11.5415 15.3758 11.6296 15.3936 11.728L15.4 11.8V15.3312C15.8304 15.1792 16.148 14.7888 16.1944 14.3192L16.2 14.2V11.8C16.2 11.6939 16.2421 11.5922 16.3172 11.5172C16.3922 11.4421 16.4939 11.4 16.6 11.4ZM20.6 11.4C20.6936 11.4 20.7843 11.4328 20.8562 11.4927C20.9281 11.5526 20.9767 11.6359 20.9936 11.728L21 11.8V22.2C21.0002 22.3 20.9629 22.3964 20.8956 22.4702C20.8283 22.5441 20.7357 22.5901 20.6361 22.5991C20.5366 22.6081 20.4373 22.5796 20.3577 22.519C20.2782 22.4585 20.2242 22.3704 20.2064 22.272L20.2 22.2V17.8H19C18.9064 17.8 18.8157 17.7672 18.7438 17.7073C18.6719 17.6474 18.6233 17.5641 18.6064 17.472L18.6 17.4V13.4C18.6 12.8696 18.8107 12.3609 19.1858 11.9858C19.5609 11.6107 20.0696 11.4 20.6 11.4Z" fill="white"/>
</g>
<defs>
<filter id="filter0_d_442_5108" x="0" y="0" width="34" height="34" filterUnits="userSpaceOnUse" color-interpolation-filters="sRGB">
<feFlood flood-opacity="0" result="BackgroundImageFix"/>
<feColorMatrix in="SourceAlpha" type="matrix" values="0 0 0 0 0 0 0 0 0 0 0 0 0 0 0 0 0 0 127 0" result="hardAlpha"/>
<feOffset/>
<feGaussianBlur stdDeviation="2"/>
<feComposite in2="hardAlpha" operator="out"/>
<feColorMatrix type="matrix" values="0 0 0 0 0 0 0 0 0 0 0 0 0 0 0 0 0 0 0.25 0"/>
<feBlend mode="normal" in2="BackgroundImageFix" result="effect1_dropShadow_442_5108"/>
<feBlend mode="normal" in="SourceGraphic" in2="effect1_dropShadow_442_5108" result="shape"/>
</filter>
</defs>
</svg>
