<svg width="78" height="50" viewBox="0 0 78 50" fill="none" xmlns="http://www.w3.org/2000/svg">
<g filter="url(#filter0_d_391_7381)">
<rect x="9" y="9" width="60" height="32" rx="12" fill="white"/>
</g>
<path d="M25.0462 23.4115L22.4699 23.7344L22.3777 24.1619L22.8839 24.2552C23.2147 24.334 23.2799 24.4532 23.2079 24.7829L22.3777 28.6844C22.1594 29.6935 22.4958 30.1683 23.2867 30.1683C23.8998 30.1683 24.6119 29.8848 24.9348 29.4955L25.0338 29.0275C24.8088 29.2255 24.4803 29.3043 24.2621 29.3043C23.9527 29.3043 23.8402 29.0871 23.9201 28.7046L25.0462 23.4115ZM25.1249 21.0625C25.1249 21.3609 25.0064 21.647 24.7954 21.858C24.5845 22.069 24.2983 22.1875 23.9999 22.1875C23.7016 22.1875 23.4154 22.069 23.2045 21.858C22.9935 21.647 22.8749 21.3609 22.8749 21.0625C22.8749 20.7641 22.9935 20.478 23.2045 20.267C23.4154 20.056 23.7016 19.9375 23.9999 19.9375C24.2983 19.9375 24.5845 20.056 24.7954 20.267C25.0064 20.478 25.1249 20.7641 25.1249 21.0625Z" fill="#333333"/>
<path d="M31.966 30V19.92H33.142V24.246C33.3753 23.8167 33.7067 23.4853 34.136 23.252C34.5653 23.0093 35.032 22.888 35.536 22.888C36.3387 22.888 36.9827 23.14 37.468 23.644C37.9533 24.1387 38.196 24.904 38.196 25.94V30H37.034V26.066C37.034 24.6193 36.4507 23.896 35.284 23.896C34.6773 23.896 34.1687 24.1153 33.758 24.554C33.3473 24.9833 33.142 25.5993 33.142 26.402V30H31.966ZM43.8697 30.168C43.2071 30.168 42.6191 30.0187 42.1057 29.72C41.5924 29.412 41.1864 28.9873 40.8877 28.446C40.5984 27.9047 40.4537 27.2653 40.4537 26.528C40.4537 25.8 40.5984 25.1653 40.8877 24.624C41.1771 24.0733 41.5784 23.6487 42.0917 23.35C42.6144 23.042 43.2164 22.888 43.8977 22.888C44.5697 22.888 45.1484 23.042 45.6337 23.35C46.1284 23.6487 46.5064 24.0453 46.7677 24.54C47.0291 25.0347 47.1597 25.5667 47.1597 26.136C47.1597 26.2387 47.1551 26.3413 47.1457 26.444C47.1457 26.5467 47.1457 26.6633 47.1457 26.794H41.6157C41.6437 27.326 41.7651 27.7693 41.9797 28.124C42.2037 28.4693 42.4791 28.7307 42.8057 28.908C43.1417 29.0853 43.4964 29.174 43.8697 29.174C44.3551 29.174 44.7611 29.062 45.0877 28.838C45.4144 28.614 45.6524 28.3107 45.8017 27.928H46.9637C46.7771 28.572 46.4177 29.1087 45.8857 29.538C45.3631 29.958 44.6911 30.168 43.8697 30.168ZM43.8697 23.882C43.3097 23.882 42.8104 24.0547 42.3717 24.4C41.9424 24.736 41.6951 25.2307 41.6297 25.884H45.9977C45.9697 25.2587 45.7551 24.7687 45.3537 24.414C44.9524 24.0593 44.4577 23.882 43.8697 23.882ZM49.4884 30V19.92H50.6644V30H49.4884ZM53.3619 33.08V23.056H54.4259L54.5379 24.204C54.7619 23.868 55.0793 23.5647 55.4899 23.294C55.9099 23.0233 56.4419 22.888 57.0859 22.888C57.7766 22.888 58.3786 23.0467 58.8919 23.364C59.4053 23.6813 59.8019 24.1153 60.0819 24.666C60.3713 25.2167 60.5159 25.842 60.5159 26.542C60.5159 27.242 60.3713 27.8673 60.0819 28.418C59.8019 28.9593 59.4006 29.3887 58.8779 29.706C58.3646 30.014 57.7626 30.168 57.0719 30.168C56.5026 30.168 55.9939 30.0513 55.5459 29.818C55.1073 29.5847 54.7713 29.258 54.5379 28.838V33.08H53.3619ZM56.9459 29.146C57.4126 29.146 57.8233 29.0387 58.1779 28.824C58.5326 28.6 58.8126 28.292 59.0179 27.9C59.2233 27.508 59.3259 27.0507 59.3259 26.528C59.3259 26.0053 59.2233 25.548 59.0179 25.156C58.8126 24.764 58.5326 24.4607 58.1779 24.246C57.8233 24.022 57.4126 23.91 56.9459 23.91C56.4793 23.91 56.0686 24.022 55.7139 24.246C55.3593 24.4607 55.0793 24.764 54.8739 25.156C54.6686 25.548 54.5659 26.0053 54.5659 26.528C54.5659 27.0507 54.6686 27.508 54.8739 27.9C55.0793 28.292 55.3593 28.6 55.7139 28.824C56.0686 29.0387 56.4793 29.146 56.9459 29.146Z" fill="#333333"/>
<defs>
<filter id="filter0_d_391_7381" x="0" y="0" width="78" height="50" filterUnits="userSpaceOnUse" color-interpolation-filters="sRGB">
<feFlood flood-opacity="0" result="BackgroundImageFix"/>
<feColorMatrix in="SourceAlpha" type="matrix" values="0 0 0 0 0 0 0 0 0 0 0 0 0 0 0 0 0 0 127 0" result="hardAlpha"/>
<feOffset/>
<feGaussianBlur stdDeviation="4.5"/>
<feComposite in2="hardAlpha" operator="out"/>
<feColorMatrix type="matrix" values="0 0 0 0 0 0 0 0 0 0 0 0 0 0 0 0 0 0 0.1 0"/>
<feBlend mode="normal" in2="BackgroundImageFix" result="effect1_dropShadow_391_7381"/>
<feBlend mode="normal" in="SourceGraphic" in2="effect1_dropShadow_391_7381" result="shape"/>
</filter>
</defs>
</svg>
