<svg width="65" height="62" viewBox="0 0 65 62" fill="none" xmlns="http://www.w3.org/2000/svg">
<g filter="url(#filter0_d_344_3592)">
<circle cx="28" cy="28" r="21.5" fill="white" stroke="#FF9D32" stroke-width="5"/>
<path d="M29 58L22.0718 49.75L35.9282 49.75L29 58Z" fill="#FF9D32"/>
<circle cx="48" cy="37" r="11.5" fill="#FF9D32" stroke="white" stroke-width="3"/>
<path d="M47.6 31.4C47.6936 31.4 47.7843 31.4328 47.8562 31.4927C47.9281 31.5526 47.9767 31.6359 47.9936 31.728L48 31.8V34.2C48.0001 34.6611 47.8409 35.108 47.5493 35.4652C47.2578 35.8223 46.8517 36.0678 46.4 36.16V42.2C46.4002 42.3 46.3629 42.3964 46.2956 42.4702C46.2283 42.5441 46.1357 42.5901 46.0361 42.5991C45.9366 42.6081 45.8373 42.5796 45.7577 42.519C45.6782 42.4585 45.6242 42.3704 45.6064 42.272L45.6 42.2V36.16C45.1713 36.0723 44.7832 35.8466 44.4951 35.5173C44.207 35.188 44.0348 34.7733 44.0048 34.3368L44 34.2V31.8C43.9998 31.7 44.0371 31.6036 44.1044 31.5298C44.1718 31.4559 44.2643 31.4099 44.3639 31.4009C44.4634 31.3919 44.5627 31.4204 44.6423 31.481C44.7218 31.5415 44.7758 31.6296 44.7936 31.728L44.8 31.8V34.2C44.7999 34.4483 44.8767 34.6904 45.02 34.8932C45.1633 35.0959 45.3659 35.2492 45.6 35.332V31.8C45.5998 31.7 45.6371 31.6036 45.7044 31.5298C45.7718 31.4559 45.8643 31.4099 45.9639 31.4009C46.0634 31.3919 46.1627 31.4204 46.2423 31.481C46.3218 31.5415 46.3758 31.6296 46.3936 31.728L46.4 31.8V35.3312C46.8304 35.1792 47.148 34.7888 47.1944 34.3192L47.2 34.2V31.8C47.2 31.6939 47.2421 31.5922 47.3172 31.5172C47.3922 31.4421 47.4939 31.4 47.6 31.4ZM51.6 31.4C51.6936 31.4 51.7843 31.4328 51.8562 31.4927C51.9281 31.5526 51.9767 31.6359 51.9936 31.728L52 31.8V42.2C52.0002 42.3 51.9629 42.3964 51.8956 42.4702C51.8283 42.5441 51.7357 42.5901 51.6361 42.5991C51.5366 42.6081 51.4373 42.5796 51.3577 42.519C51.2782 42.4585 51.2242 42.3704 51.2064 42.272L51.2 42.2V37.8H50C49.9064 37.8 49.8157 37.7672 49.7438 37.7073C49.6719 37.6474 49.6233 37.5641 49.6064 37.472L49.6 37.4V33.4C49.6 32.8696 49.8107 32.3609 50.1858 31.9858C50.5609 31.6107 51.0696 31.4 51.6 31.4Z" fill="white"/>
</g>
<defs>
<filter id="filter0_d_344_3592" x="0" y="0" width="65" height="62" filterUnits="userSpaceOnUse" color-interpolation-filters="sRGB">
<feFlood flood-opacity="0" result="BackgroundImageFix"/>
<feColorMatrix in="SourceAlpha" type="matrix" values="0 0 0 0 0 0 0 0 0 0 0 0 0 0 0 0 0 0 127 0" result="hardAlpha"/>
<feOffset/>
<feGaussianBlur stdDeviation="2"/>
<feComposite in2="hardAlpha" operator="out"/>
<feColorMatrix type="matrix" values="0 0 0 0 0 0 0 0 0 0 0 0 0 0 0 0 0 0 0.25 0"/>
<feBlend mode="normal" in2="BackgroundImageFix" result="effect1_dropShadow_344_3592"/>
<feBlend mode="normal" in="SourceGraphic" in2="effect1_dropShadow_344_3592" result="shape"/>
</filter>
</defs>
</svg>
