<svg width="27" height="27" viewBox="0 0 27 27" fill="none" xmlns="http://www.w3.org/2000/svg">
<path d="M18.2026 18H10.1251V16.875C10.1251 14.3888 8.11133 12.375 5.62508 12.375H4.79258L6.93008 2.88C7.04407 2.38285 7.32287 1.93887 7.72115 1.62025C8.11944 1.30162 8.61378 1.12708 9.12383 1.125H12.3751C12.9938 1.125 13.5001 1.63125 13.5001 2.25C13.5001 2.86875 12.9938 3.375 12.3751 3.375H9.12383L7.54883 10.4062H7.56008C8.76551 10.7696 9.8455 11.4623 10.6783 12.4065C11.5112 13.3507 12.0638 14.5087 12.2738 15.75H18.2026C18.4729 14.9834 19.0112 14.3404 19.7182 13.9393C20.4252 13.5382 21.2534 13.4062 22.0501 13.5675C23.3776 13.8263 24.4463 14.9175 24.6938 16.245C24.7862 16.7331 24.7697 17.2355 24.6456 17.7165C24.5215 18.1975 24.2928 18.6451 23.9759 19.0276C23.6589 19.4101 23.2615 19.718 22.812 19.9292C22.3624 20.1405 21.8718 20.2501 21.3751 20.25C19.9126 20.25 18.6751 19.305 18.2026 18ZM21.3751 18C21.9938 18 22.5001 17.4937 22.5001 16.875C22.5001 16.2563 21.9938 15.75 21.3751 15.75C20.7563 15.75 20.2501 16.2563 20.2501 16.875C20.2501 17.4937 20.7563 18 21.3751 18Z" fill="#404D61"/>
<path d="M5.625 13.5C7.4925 13.5 9 15.0075 9 16.875C9 18.7425 7.4925 20.25 5.625 20.25C3.7575 20.25 2.25 18.7425 2.25 16.875C2.25 15.0075 3.7575 13.5 5.625 13.5ZM5.625 18C6.24375 18 6.75 17.4938 6.75 16.875C6.75 16.2562 6.24375 15.75 5.625 15.75C5.00625 15.75 4.5 16.2562 4.5 16.875C4.5 17.4938 5.00625 18 5.625 18Z" fill="#404D61"/>
</svg>
