<svg width="17" height="17" viewBox="0 0 17 17" fill="none" xmlns="http://www.w3.org/2000/svg">
<path d="M9.55983 14.8461H9.52176C9.38208 14.8377 9.24911 14.7834 9.14352 14.6915C9.03793 14.5997 8.96564 14.4756 8.93791 14.3384L7.86541 9.13458L2.66157 8.06208C2.52415 8.03479 2.39963 7.9628 2.30742 7.85733C2.21521 7.75185 2.16049 7.61883 2.1518 7.47901C2.1431 7.33918 2.18092 7.20041 2.25936 7.08432C2.33779 6.96824 2.45244 6.88138 2.58541 6.83728L12.7393 3.45478C12.8532 3.40771 12.9784 3.39488 13.0996 3.41783C13.2208 3.44079 13.3326 3.49854 13.4215 3.58404C13.5103 3.66953 13.5723 3.77906 13.6 3.89923C13.6276 4.01941 13.6196 4.14503 13.577 4.26074L10.1945 14.4146C10.1503 14.5459 10.0644 14.6592 9.94976 14.7371C9.83517 14.8151 9.69822 14.8533 9.55983 14.8461ZM5.24445 7.2942L8.5381 7.96689C8.66122 7.99064 8.77455 8.05033 8.86378 8.13843C8.953 8.22653 9.01413 8.33908 9.03945 8.46189L9.7058 11.7555L11.9396 5.06035L5.24445 7.2942Z" fill="black"/>
</svg>
