<svg width="145" height="157.5" viewBox="0 0 58 63" fill="none" xmlns="http://www.w3.org/2000/svg">
<g filter="url(#filter0_d_344_2834)">
<circle cx="29" cy="29" r="19" fill="white"/>
<path d="M50.4077 28.908C50.4077 26.0845 49.8516 23.2888 48.7711 20.6803C47.6907 18.0718 46.107 15.7016 44.1105 13.7052C42.1141 11.7087 39.7439 10.125 37.1354 9.04455C34.5269 7.96407 31.7311 7.40796 28.9077 7.40796C26.0843 7.40796 23.2885 7.96407 20.68 9.04455C18.0715 10.125 15.7014 11.7087 13.7049 13.7052C11.7085 15.7016 10.1248 18.0718 9.04431 20.6803C7.96383 23.2888 7.40772 26.0845 7.40771 28.908C7.40771 31.7314 7.96383 34.5272 9.0443 37.1357C10.1248 39.7442 11.7085 42.1143 13.7049 44.1108C15.7014 46.1072 18.0715 47.6909 20.68 48.7714C23.2885 49.8518 26.0843 50.408 28.9077 50.408C31.7311 50.408 34.5269 49.8518 37.1354 48.7714C39.7439 47.6909 42.1141 46.1072 44.1105 44.1108C46.107 42.1143 47.6906 39.7442 48.7711 37.1357C49.8516 34.5272 50.4077 31.7314 50.4077 28.908L50.4077 28.908Z" stroke="#D7D7D7" stroke-width="6" stroke-miterlimit="1" stroke-linejoin="round"/>
<path d="M13.64 44.0452C16.1293 46.556 19.1995 48.4142 22.5785 49.4551C25.9575 50.496 29.541 50.6875 33.0117 50.0127C36.4824 49.3378 39.7331 47.8174 42.4759 45.5862C45.2186 43.3549 47.3688 40.4817 48.7359 37.221C50.103 33.9603 50.6448 30.4128 50.3134 26.8926C49.982 23.3725 48.7875 19.9884 46.8359 17.0402C44.8842 14.0919 42.2356 11.6705 39.1246 9.9904C36.0136 8.31028 32.5362 7.42334 29.0006 7.40813" stroke="#1784E8" stroke-width="6" stroke-miterlimit="1" stroke-linecap="round" stroke-linejoin="round"/>
<path d="M33.2395 33.0747H26.6579V32.158C26.6579 30.1322 25.017 28.4914 22.9912 28.4914H22.3129L24.0545 20.7547C24.1474 20.3496 24.3746 19.9879 24.6991 19.7282C25.0236 19.4686 25.4264 19.3264 25.842 19.3247H28.4912C28.9954 19.3247 29.4079 19.7372 29.4079 20.2414C29.4079 20.7455 28.9954 21.158 28.4912 21.158H25.842L24.5587 26.8872H24.5679C25.5501 27.1832 26.4301 27.7477 27.1087 28.517C27.7873 29.2864 28.2376 30.2299 28.4087 31.2414H33.2395C33.4598 30.6167 33.8984 30.0928 34.4745 29.766C35.0506 29.4392 35.7254 29.3316 36.3745 29.463C37.4562 29.6739 38.327 30.563 38.5287 31.6447C38.6039 32.0424 38.5905 32.4518 38.4894 32.8437C38.3883 33.2356 38.202 33.6004 37.9437 33.912C37.6855 34.2237 37.3617 34.4745 36.9954 34.6467C36.629 34.8188 36.2293 34.9081 35.8245 34.908C34.6329 34.908 33.6245 34.138 33.2395 33.0747ZM35.8245 33.0747C36.3287 33.0747 36.7412 32.6622 36.7412 32.158C36.7412 31.6539 36.3287 31.2414 35.8245 31.2414C35.3204 31.2414 34.9079 31.6539 34.9079 32.158C34.9079 32.6622 35.3204 33.0747 35.8245 33.0747Z" fill="black"/>
<path d="M22.9912 29.408C24.5129 29.408 25.7412 30.6363 25.7412 32.158C25.7412 33.6796 24.5129 34.908 22.9912 34.908C21.4695 34.908 20.2412 33.6796 20.2412 32.158C20.2412 30.6363 21.4695 29.408 22.9912 29.408ZM22.9912 33.0746C23.4954 33.0746 23.9079 32.6621 23.9079 32.158C23.9079 31.6538 23.4954 31.2413 22.9912 31.2413C22.487 31.2413 22.0745 31.6538 22.0745 32.158C22.0745 32.6621 22.487 33.0746 22.9912 33.0746Z" fill="black"/>
<path d="M30 59L23.0718 50.75L36.9282 50.75L30 59Z" fill="#1784E8"/>
</g>
<defs>
<filter id="filter0_d_344_2834" x="0.407715" y="0.407959" width="57.0005" height="62.592" filterUnits="userSpaceOnUse" color-interpolation-filters="sRGB">
<feFlood flood-opacity="0" result="BackgroundImageFix"/>
<feColorMatrix in="SourceAlpha" type="matrix" values="0 0 0 0 0 0 0 0 0 0 0 0 0 0 0 0 0 0 127 0" result="hardAlpha"/>
<feOffset/>
<feGaussianBlur stdDeviation="2"/>
<feComposite in2="hardAlpha" operator="out"/>
<feColorMatrix type="matrix" values="0 0 0 0 0 0 0 0 0 0 0 0 0 0 0 0 0 0 0.25 0"/>
<feBlend mode="normal" in2="BackgroundImageFix" result="effect1_dropShadow_344_2834"/>
<feBlend mode="normal" in="SourceGraphic" in2="effect1_dropShadow_344_2834" result="shape"/>
</filter>
</defs>
</svg>
