<svg width="90" height="99" viewBox="0 0 50 55" fill="none" xmlns="http://www.w3.org/2000/svg">
<circle cx="25.3853" cy="25.0003" r="19" fill="white"/>
<path d="M46.793 24.9082C46.793 22.0848 46.2369 19.289 45.1564 16.6805C44.0759 14.072 42.4922 11.7019 40.4958 9.70544C38.4993 7.70898 36.1292 6.1253 33.5207 5.04482C30.9122 3.96435 28.1164 3.40823 25.293 3.40823C22.4696 3.40823 19.6738 3.96435 17.0653 5.04482C14.4568 6.1253 12.0866 7.70898 10.0902 9.70544C8.09371 11.7019 6.51004 14.072 5.42956 16.6805C4.34908 19.289 3.79297 22.0848 3.79297 24.9082C3.79297 27.7317 4.34908 30.5274 5.42956 33.1359C6.51003 35.7444 8.09371 38.1146 10.0902 40.111C12.0866 42.1075 14.4568 43.6912 17.0653 44.7716C19.6738 45.8521 22.4695 46.4082 25.293 46.4082C28.1164 46.4082 30.9122 45.8521 33.5207 44.7716C36.1292 43.6912 38.4993 42.1075 40.4958 40.111C42.4922 38.1146 44.0759 35.7444 45.1564 33.1359C46.2369 30.5274 46.793 27.7317 46.793 24.9082L46.793 24.9082Z" stroke="#D7D7D7" stroke-width="6" stroke-miterlimit="1" stroke-linejoin="round"/>
<path d="M46.6935 22.8391C46.2143 17.8822 44.0293 13.2455 40.5115 9.72056C36.9938 6.19564 32.3614 4.00118 27.4056 3.51193" stroke="#1784E8" stroke-width="6" stroke-miterlimit="1" stroke-linecap="round" stroke-linejoin="round"/>
<path d="M26.3853 55.0003L19.457 46.7503L33.3135 46.7503L26.3853 55.0003Z" fill="#D7D7D7"/>
<path d="M29.8318 29.6667H23.2502V28.75C23.2502 26.7242 21.6093 25.0833 19.5835 25.0833H18.9052L20.6468 17.3467C20.7397 16.9416 20.9669 16.5798 21.2914 16.3202C21.6159 16.0606 22.0187 15.9184 22.4343 15.9167H25.0835C25.5877 15.9167 26.0002 16.3292 26.0002 16.8333C26.0002 17.3375 25.5877 17.75 25.0835 17.75H22.4343L21.151 23.4792H21.1602C22.1424 23.7752 23.0224 24.3397 23.701 25.109C24.3796 25.8783 24.8298 26.8219 25.001 27.8333H29.8318C30.0521 27.2087 30.4907 26.6847 31.0668 26.3579C31.6429 26.0311 32.3177 25.9236 32.9668 26.055C34.0485 26.2658 34.9193 27.155 35.121 28.2367C35.1962 28.6343 35.1828 29.0437 35.0817 29.4356C34.9806 29.8275 34.7942 30.1923 34.536 30.504C34.2778 30.8156 33.9539 31.0665 33.5876 31.2386C33.2213 31.4108 32.8216 31.5 32.4168 31.5C31.2252 31.5 30.2168 30.73 29.8318 29.6667ZM32.4168 29.6667C32.921 29.6667 33.3335 29.2542 33.3335 28.75C33.3335 28.2458 32.921 27.8333 32.4168 27.8333C31.9127 27.8333 31.5002 28.2458 31.5002 28.75C31.5002 29.2542 31.9127 29.6667 32.4168 29.6667Z" fill="black"/>
<path d="M19.5835 26C21.1052 26 22.3335 27.2283 22.3335 28.75C22.3335 30.2717 21.1052 31.5 19.5835 31.5C18.0618 31.5 16.8335 30.2717 16.8335 28.75C16.8335 27.2283 18.0618 26 19.5835 26ZM19.5835 29.6667C20.0877 29.6667 20.5002 29.2542 20.5002 28.75C20.5002 28.2458 20.0877 27.8333 19.5835 27.8333C19.0793 27.8333 18.6668 28.2458 18.6668 28.75C18.6668 29.2542 19.0793 29.6667 19.5835 29.6667Z" fill="black"/>
</svg>
