<svg width="90" height="99" viewBox="0 0 50 56" fill="none" xmlns="http://www.w3.org/2000/svg">
<circle cx="25" cy="25.3854" r="19" fill="white"/>
<path d="M46.4077 25.2933C46.4077 22.4699 45.8516 19.6741 44.7711 17.0656C43.6907 14.4571 42.107 12.087 40.1105 10.0905C38.1141 8.09408 35.7439 6.5104 33.1354 5.42993C30.5269 4.34945 27.7311 3.79334 24.9077 3.79333C22.0843 3.79333 19.2885 4.34945 16.68 5.42992C14.0715 6.5104 11.7014 8.09408 9.70492 10.0905C7.70846 12.087 6.12478 14.4571 5.04431 17.0656C3.96383 19.6741 3.40772 22.4699 3.40771 25.2933C3.40771 28.1168 3.96383 30.9125 5.0443 33.521C6.12478 36.1295 7.70846 38.4997 9.70492 40.4961C11.7014 42.4926 14.0715 44.0763 16.68 45.1567C19.2885 46.2372 22.0843 46.7933 24.9077 46.7933C27.7311 46.7933 30.5269 46.2372 33.1354 45.1567C35.7439 44.0763 38.1141 42.4926 40.1105 40.4961C42.107 38.4997 43.6906 36.1295 44.7711 33.521C45.8516 30.9125 46.4077 28.1168 46.4077 25.2933L46.4077 25.2933Z" stroke="#1784E8" stroke-width="6" stroke-miterlimit="1" stroke-linejoin="round"/>
<path d="M26 55.3854L19.0718 47.1354L32.9282 47.1354L26 55.3854Z" fill="#1784E8"/>
<path d="M27.8318 30.552H28.1826L28.302 30.8818C28.6196 31.759 29.448 32.3853 30.4168 32.3853H30.4169C30.7481 32.3854 31.0752 32.3123 31.375 32.1715C31.6747 32.0306 31.9397 31.8253 32.151 31.5703C32.3623 31.3153 32.5148 31.0168 32.5975 30.6961C32.6803 30.3754 32.6913 30.0404 32.6297 29.7149L32.6295 29.7136C32.4649 28.8309 31.7488 28.1022 30.8712 27.9311L30.8712 27.9311L30.8676 27.9304C30.3366 27.8229 29.7847 27.9109 29.3135 28.1782C28.8423 28.4455 28.4835 28.8741 28.3034 29.385L28.1857 29.7187H27.8318H23.001H22.5785L22.508 29.3021C22.3524 28.3825 21.943 27.5246 21.326 26.8251C20.7249 26.1436 19.95 25.6389 19.0847 25.3645H18.5266L18.6631 24.7552L19.9464 19.026L20.0339 18.6353H20.4343H23.0835C23.3115 18.6353 23.5002 18.4467 23.5002 18.2187C23.5002 17.9906 23.3115 17.802 23.0835 17.802H20.4354C20.133 17.8034 19.8399 17.907 19.6037 18.096C19.3676 18.2849 19.2022 18.548 19.1344 18.8427C19.1343 18.8431 19.1343 18.8434 19.1342 18.8437L17.5302 25.9687H17.5835C19.8855 25.9687 21.7502 27.8334 21.7502 30.1353V30.552H27.8318ZM31.8335 30.1353C31.8335 30.9156 31.1971 31.552 30.4168 31.552C29.6365 31.552 29.0002 30.9156 29.0002 30.1353C29.0002 29.355 29.6365 28.7187 30.4168 28.7187C31.1971 28.7187 31.8335 29.355 31.8335 30.1353Z" fill="black" stroke="black"/>
<path d="M17.5835 27.3854C19.1052 27.3854 20.3335 28.6137 20.3335 30.1354C20.3335 31.657 19.1052 32.8854 17.5835 32.8854C16.0618 32.8854 14.8335 31.657 14.8335 30.1354C14.8335 28.6137 16.0618 27.3854 17.5835 27.3854ZM17.5835 31.052C18.0877 31.052 18.5002 30.6395 18.5002 30.1354C18.5002 29.6312 18.0877 29.2187 17.5835 29.2187C17.0793 29.2187 16.6668 29.6312 16.6668 30.1354C16.6668 30.6395 17.0793 31.052 17.5835 31.052Z" fill="black"/>
<line x1="26.4673" y1="19.1024" x2="30.7173" y2="19.1024" stroke="black" stroke-width="1.75" stroke-linecap="round"/>
<line x1="28.4673" y1="22.1024" x2="32.7173" y2="22.1024" stroke="black" stroke-width="1.75" stroke-linecap="round"/>
<path d="M30.5923 24.9774H34.8423" stroke="black" stroke-width="1.75" stroke-linecap="round"/>
</svg>
