<svg width="25" height="19" viewBox="0 0 25 19" fill="none" xmlns="http://www.w3.org/2000/svg">
<g clip-path="url(#clip0_237_498)">
<path d="M24.4161 0.00476877C24.4161 4.78784 24.4161 9.57569 24.4161 14.3588C22.8043 14.3588 21.1924 14.3635 19.5758 14.354C19.2945 14.354 19.0846 14.4303 18.8796 14.6163C18.3455 15.0979 17.7875 15.5557 17.2391 16.0278C16.6239 15.5033 16.0278 14.993 15.4317 14.4828C15.3745 14.4351 15.303 14.3683 15.2362 14.3635C14.9549 14.3492 14.6687 14.3588 14.3635 14.3588C14.3635 15.3268 14.3635 16.2663 14.3635 17.2343C14.2443 17.2343 14.1537 17.2343 14.0583 17.2343C12.6516 17.2343 11.2448 17.2582 9.83798 17.2248C9.33249 17.2105 8.92715 17.3106 8.59333 17.6921C8.51703 17.7827 8.41212 17.8495 8.32151 17.9258C7.94478 18.2501 7.56328 18.5696 7.18178 18.8986C6.58091 18.3836 5.99912 17.8781 5.40302 17.3869C5.29811 17.3011 5.14074 17.2391 5.00245 17.2391C3.42875 17.2296 1.85506 17.2343 0.281365 17.2343C0.18599 17.2343 0.0906146 17.2248 -0.00476074 17.22C-0.00476074 12.437 -0.00476074 7.64911 -0.00476074 2.86603C3.34292 2.86603 6.69059 2.86603 10.0669 2.86603C10.0669 1.88843 10.0669 0.948985 10.0669 0C10.1956 0 10.3006 0 10.4007 0C14.9787 0 19.5567 0 24.13 0C24.2254 0 24.3207 0.00476877 24.4161 0.00476877ZM12.9138 4.32051C9.07498 4.32051 5.25996 4.32051 1.44495 4.32051C1.44495 8.14983 1.44495 11.9601 1.44495 15.7942C1.54032 15.7942 1.62616 15.7942 1.712 15.7942C2.97572 15.7942 4.23944 15.7989 5.50317 15.7894C5.68915 15.7894 5.83221 15.8371 5.97051 15.9611C6.36631 16.314 6.77166 16.6525 7.18178 17.0007C7.60143 16.6382 8.00677 16.2997 8.40735 15.9468C8.53134 15.8371 8.66009 15.7846 8.83177 15.7846C10.105 15.7942 11.3735 15.7894 12.6468 15.7894C12.7326 15.7894 12.8185 15.7894 12.9138 15.7894C12.9138 11.9601 12.9138 8.14983 12.9138 4.32051ZM15.365 6.49983C14.9024 5.18365 15.0789 4.31097 15.9325 3.66718C16.6812 3.0997 17.7064 3.08063 18.4647 3.6195C18.8557 3.89608 19.1228 4.25851 19.2754 4.70678C19.4852 5.33625 19.3898 5.93712 19.0799 6.50937C21.1066 7.55373 21.717 9.47078 21.5072 11.1351C19.1323 11.1351 16.7527 11.1351 14.3683 11.1351C14.3683 11.7455 14.3683 12.3273 14.3683 12.9329C14.7975 12.9329 15.2076 12.9234 15.6177 12.9377C15.7417 12.9424 15.88 12.9949 15.9754 13.0712C16.3998 13.4145 16.8099 13.777 17.2296 14.1346C17.6492 13.777 18.0593 13.4384 18.4551 13.0855C18.5839 12.9711 18.7127 12.9329 18.8843 12.9329C20.1624 12.9377 21.4452 12.9377 22.7232 12.9377C22.8043 12.9377 22.8901 12.9377 22.9712 12.9377C22.9712 9.08927 22.9712 5.27903 22.9712 1.45447C19.1418 1.45447 15.3268 1.45447 11.5023 1.45447C11.5023 1.93135 11.5023 2.39392 11.5023 2.88511C12.456 2.88511 13.4003 2.88511 14.3683 2.88511C14.3683 4.32527 14.3683 5.7416 14.3683 7.16269C14.7164 6.92902 15.0407 6.71443 15.365 6.49983ZM14.4828 9.6806C16.3235 9.6806 18.1499 9.6806 19.9764 9.6806C19.9001 8.65532 18.6077 7.59188 17.3726 7.54419C15.7513 7.4822 14.6783 8.68393 14.4828 9.6806ZM17.9449 5.3744C17.9401 4.9786 17.6301 4.67339 17.2296 4.67816C16.8385 4.67816 16.5238 4.99767 16.5238 5.38871C16.5238 5.77498 16.8433 6.10402 17.2296 6.10879C17.6254 6.10879 17.9497 5.77498 17.9449 5.3744Z" fill="#757D8A"/>
<path d="M3.21891 9.38021C3.23322 7.9162 4.38726 6.76693 5.82743 6.786C6.25662 6.79077 6.66196 6.89568 7.02916 7.11505C7.13884 7.17704 7.21991 7.17227 7.32959 7.11505C9.07019 6.18514 11.1112 7.38687 11.1398 9.36113C11.1494 10.1289 10.8156 10.7775 10.3482 11.3592C9.50415 12.4131 8.40733 13.1571 7.27236 13.8485C7.22468 13.8772 7.1293 13.8772 7.08161 13.8438C5.9085 13.1237 4.76876 12.3511 3.91515 11.24C3.45735 10.6344 3.21414 9.9763 3.21891 9.38021ZM7.21514 12.2224C7.72063 11.8123 8.24996 11.4212 8.73161 10.9777C9.02727 10.7012 9.27048 10.3578 9.49938 10.0192C9.69013 9.73787 9.74735 9.39928 9.65198 9.0607C9.43261 8.27386 8.52655 7.97819 7.88753 8.48368C7.62048 8.69351 7.38204 8.93194 7.16745 9.1227C6.95286 8.92718 6.70488 8.6792 6.43783 8.45984C6.08971 8.17371 5.6939 8.15941 5.29809 8.35016C4.89752 8.54568 4.67815 8.87949 4.66862 9.33729C4.65908 9.79509 4.89275 10.1575 5.16457 10.4913C5.72251 11.1876 6.43783 11.6978 7.21514 12.2224Z" fill="#757D8A"/>
</g>
<defs>
<clipPath id="clip0_237_498">
<rect width="24.4161" height="18.8986" fill="white"/>
</clipPath>
</defs>
</svg>
